<mxfile host="app.diagrams.net" modified="2023-02-23T03:17:01.213Z" agent="5.0 (Windows NT 10.0; Win64; x64) AppleWebKit/537.36 (KHTML, like Gecko) Chrome/110.0.0.0 Safari/537.36 Edg/110.0.1587.50" etag="t6NvtEUwIDhfgKw-gGAI" version="20.8.19" type="github">
  <diagram name="第 1 页" id="VBkTwmMw8Twz73WTKEvl">
    <mxGraphModel dx="746" dy="1599" grid="1" gridSize="10" guides="1" tooltips="1" connect="1" arrows="1" fold="1" page="1" pageScale="1" pageWidth="827" pageHeight="1169" math="0" shadow="0">
      <root>
        <mxCell id="0" />
        <mxCell id="1" parent="0" />
        <mxCell id="XKYg5dqnUTp-qycACsAL-23" value="" style="swimlane;startSize=0;" vertex="1" parent="1">
          <mxGeometry x="160" y="-1110" width="400" height="120" as="geometry">
            <mxRectangle x="70" y="-900" width="50" height="40" as="alternateBounds" />
          </mxGeometry>
        </mxCell>
        <mxCell id="XKYg5dqnUTp-qycACsAL-1" value="解析服务1" style="rounded=0;whiteSpace=wrap;html=1;" vertex="1" parent="XKYg5dqnUTp-qycACsAL-23">
          <mxGeometry x="40" y="35" width="120" height="60" as="geometry" />
        </mxCell>
        <mxCell id="XKYg5dqnUTp-qycACsAL-21" value="解析服务2" style="rounded=0;whiteSpace=wrap;html=1;" vertex="1" parent="XKYg5dqnUTp-qycACsAL-23">
          <mxGeometry x="240" y="35" width="120" height="60" as="geometry" />
        </mxCell>
        <mxCell id="XKYg5dqnUTp-qycACsAL-30" value="协议层" style="text;html=1;strokeColor=none;fillColor=none;align=center;verticalAlign=middle;whiteSpace=wrap;rounded=0;fontStyle=1;fontSize=17;" vertex="1" parent="XKYg5dqnUTp-qycACsAL-23">
          <mxGeometry x="170" y="5" width="60" height="30" as="geometry" />
        </mxCell>
        <mxCell id="XKYg5dqnUTp-qycACsAL-26" value="" style="swimlane;startSize=0;" vertex="1" parent="1">
          <mxGeometry x="160" y="-880" width="400" height="120" as="geometry">
            <mxRectangle x="70" y="-900" width="50" height="40" as="alternateBounds" />
          </mxGeometry>
        </mxCell>
        <mxCell id="XKYg5dqnUTp-qycACsAL-27" value="接入网关1" style="rounded=0;whiteSpace=wrap;html=1;" vertex="1" parent="XKYg5dqnUTp-qycACsAL-26">
          <mxGeometry x="40" y="35" width="120" height="60" as="geometry" />
        </mxCell>
        <mxCell id="XKYg5dqnUTp-qycACsAL-28" value="接入网关2" style="rounded=0;whiteSpace=wrap;html=1;" vertex="1" parent="XKYg5dqnUTp-qycACsAL-26">
          <mxGeometry x="240" y="35" width="120" height="60" as="geometry" />
        </mxCell>
        <mxCell id="XKYg5dqnUTp-qycACsAL-29" value="接入层" style="text;html=1;strokeColor=none;fillColor=none;align=center;verticalAlign=middle;whiteSpace=wrap;rounded=0;fontStyle=1;fontSize=17;" vertex="1" parent="XKYg5dqnUTp-qycACsAL-26">
          <mxGeometry x="170" width="60" height="30" as="geometry" />
        </mxCell>
        <mxCell id="XKYg5dqnUTp-qycACsAL-37" value="" style="html=1;shadow=0;dashed=0;align=center;verticalAlign=middle;shape=mxgraph.arrows2.arrow;dy=0.6;dx=40;direction=north;notch=0;fontSize=17;" vertex="1" parent="1">
          <mxGeometry x="170" y="-740" width="70" height="100" as="geometry" />
        </mxCell>
        <mxCell id="XKYg5dqnUTp-qycACsAL-38" value="" style="html=1;shadow=0;dashed=0;align=center;verticalAlign=middle;shape=mxgraph.arrows2.arrow;dy=0.6;dx=40;direction=north;notch=0;fontSize=17;" vertex="1" parent="1">
          <mxGeometry x="260" y="-740" width="70" height="100" as="geometry" />
        </mxCell>
        <mxCell id="XKYg5dqnUTp-qycACsAL-39" value="" style="html=1;shadow=0;dashed=0;align=center;verticalAlign=middle;shape=mxgraph.arrows2.arrow;dy=0.6;dx=40;direction=north;notch=0;fontSize=17;" vertex="1" parent="1">
          <mxGeometry x="480" y="-740" width="70" height="100" as="geometry" />
        </mxCell>
        <mxCell id="XKYg5dqnUTp-qycACsAL-40" value="" style="html=1;shadow=0;dashed=0;align=center;verticalAlign=middle;shape=mxgraph.arrows2.arrow;dy=0.6;dx=40;direction=north;notch=0;fontSize=17;" vertex="1" parent="1">
          <mxGeometry x="390" y="-740" width="70" height="100" as="geometry" />
        </mxCell>
        <mxCell id="XKYg5dqnUTp-qycACsAL-42" value="Tcp" style="text;html=1;strokeColor=none;fillColor=none;align=center;verticalAlign=middle;whiteSpace=wrap;rounded=0;fontSize=17;" vertex="1" parent="1">
          <mxGeometry x="140" y="-690" width="60" height="30" as="geometry" />
        </mxCell>
        <mxCell id="XKYg5dqnUTp-qycACsAL-43" value="Udp" style="text;html=1;strokeColor=none;fillColor=none;align=center;verticalAlign=middle;whiteSpace=wrap;rounded=0;fontSize=17;" vertex="1" parent="1">
          <mxGeometry x="230" y="-690" width="60" height="30" as="geometry" />
        </mxCell>
        <mxCell id="XKYg5dqnUTp-qycACsAL-44" value="Websocket" style="text;html=1;strokeColor=none;fillColor=none;align=center;verticalAlign=middle;whiteSpace=wrap;rounded=0;fontSize=17;" vertex="1" parent="1">
          <mxGeometry x="330" y="-690" width="60" height="30" as="geometry" />
        </mxCell>
        <mxCell id="XKYg5dqnUTp-qycACsAL-45" value="Mqtt" style="text;html=1;strokeColor=none;fillColor=none;align=center;verticalAlign=middle;whiteSpace=wrap;rounded=0;fontSize=17;" vertex="1" parent="1">
          <mxGeometry x="448.5" y="-690" width="60" height="30" as="geometry" />
        </mxCell>
        <mxCell id="XKYg5dqnUTp-qycACsAL-47" value="" style="endArrow=classic;startArrow=classic;html=1;rounded=0;fontSize=17;edgeStyle=orthogonalEdgeStyle;curved=1;exitX=0;exitY=0.5;exitDx=0;exitDy=0;" edge="1" parent="1" source="XKYg5dqnUTp-qycACsAL-23">
          <mxGeometry width="50" height="50" relative="1" as="geometry">
            <mxPoint x="80" y="-990" as="sourcePoint" />
            <mxPoint x="150" y="-820" as="targetPoint" />
            <Array as="points">
              <mxPoint x="50" y="-1050" />
              <mxPoint x="50" y="-820" />
            </Array>
          </mxGeometry>
        </mxCell>
        <mxCell id="XKYg5dqnUTp-qycACsAL-49" value="socket&lt;br&gt;http&lt;br&gt;kafka" style="text;html=1;strokeColor=none;fillColor=none;align=center;verticalAlign=middle;whiteSpace=wrap;rounded=0;fontSize=17;" vertex="1" parent="1">
          <mxGeometry x="70" y="-970" width="60" height="30" as="geometry" />
        </mxCell>
        <mxCell id="XKYg5dqnUTp-qycACsAL-51" value="" style="html=1;shadow=0;dashed=0;align=center;verticalAlign=middle;shape=mxgraph.arrows2.arrow;dy=0.6;dx=40;direction=north;notch=0;fontSize=17;" vertex="1" parent="1">
          <mxGeometry x="220" y="-990" width="70" height="100" as="geometry" />
        </mxCell>
        <mxCell id="XKYg5dqnUTp-qycACsAL-52" value="" style="html=1;shadow=0;dashed=0;align=center;verticalAlign=middle;shape=mxgraph.arrows2.arrow;dy=0.6;dx=40;direction=south;notch=0;fontSize=17;" vertex="1" parent="1">
          <mxGeometry x="444" y="-980" width="70" height="100" as="geometry" />
        </mxCell>
        <mxCell id="XKYg5dqnUTp-qycACsAL-54" value="" style="html=1;shadow=0;dashed=0;align=center;verticalAlign=middle;shape=mxgraph.arrows2.arrow;dy=0.6;dx=40;direction=north;notch=0;fontSize=17;" vertex="1" parent="1">
          <mxGeometry x="600" y="-740" width="70" height="100" as="geometry" />
        </mxCell>
        <mxCell id="XKYg5dqnUTp-qycACsAL-55" value="中转" style="text;html=1;strokeColor=none;fillColor=none;align=center;verticalAlign=middle;whiteSpace=wrap;rounded=0;fontSize=17;" vertex="1" parent="1">
          <mxGeometry x="660" y="-690" width="60" height="30" as="geometry" />
        </mxCell>
      </root>
    </mxGraphModel>
  </diagram>
</mxfile>
